<?xml version="1.0" encoding="UTF-8"?>
<svg width="220px" height="220px" viewBox="0 0 220 220" version="1.1" xmlns="http://www.w3.org/2000/svg" xmlns:xlink="http://www.w3.org/1999/xlink">
    <!-- Generator: Sketch 52.4 (67378) - http://www.bohemiancoding.com/sketch -->
    <title>Group 4</title>
    <desc>Created with Sketch.</desc>
    <g id="Page-1" stroke="none" stroke-width="1" fill="none" fill-rule="evenodd">
        <g id="Landing-Page---Application-Confirmation" transform="translate(-740.000000, -1804.000000)">
            <g id="Our-Philosophy" transform="translate(208.000000, 1693.000000)">
                <g id="Creativity" transform="translate(532.000000, 111.000000)">
                    <g id="Group-4">
                        <circle id="Oval-Copy-2" fill="#E5F9F7" cx="110" cy="110" r="110"></circle>
                        <g id="Icon---Creative" transform="translate(55.000000, 57.000000)">
                            <path d="M79.9925807,57.1551345 C79.9925807,43.814633 69.2507255,33 56,33 C42.7492745,33 32.0074193,43.814633 32.0074193,57.1551345 C32.0074193,57.1551345 31.5015744,68.4820755 38.843488,75.9655678 C47.9351276,85.2318921 44.4462298,86.7376983 46.4733789,91.4190553 C46.8887598,92.3791585 47.8341094,93 48.8752002,93 L56,93 L63.1247998,93 C64.1651367,93 65.1104863,92.3791585 65.5266211,91.4190553 C67.5530164,86.7376983 64.0648724,85.2318921 73.156512,75.9655678 C80.4984256,68.4820755 79.9925807,57.1551345 79.9925807,57.1551345" id="Fill-1" fill="#16D1BC"></path>
                            <path d="M69.878372,50.01713 C69.9672549,49.665681 70.0185924,49.3005687 70.0185924,48.9240704 C70.0185924,46.6878526 68.3665968,44.8205425 66.1537196,44.3446061 C65.1951637,41.2567127 62.1808081,39 58.6032723,39 C57.7519888,39.0007591 57.0899646,39.6740534 57.0899646,40.4642444 L57.0899646,69.3513811 C57.0899646,70.1415721 57.7519888,70.8148664 58.5871814,70.8163846 C59.1097514,70.8163846 59.6032047,70.7670451 60.0828657,70.6805112 L57.4431974,92.0915755 L54.5560363,92.0915755 L51.9163681,70.6805112 C52.3960291,70.7670451 52.8894823,70.8163846 53.3959615,70.8163846 C54.2472449,70.8148664 54.9100354,70.1415721 54.9100354,69.3513811 L54.9100354,40.4642444 C54.9100354,39.6740534 54.2472449,39.0007591 53.4120524,39 C49.8184256,39 46.80407,41.2567127 45.8462804,44.3446061 C43.6334032,44.8205425 41.9806414,46.6878526 41.9806414,48.9240704 C41.9806414,49.3005687 42.0319789,49.665681 42.1208618,50.01713 C40.2275032,51.3735867 39,53.517198 39,55.9371106 C39,57.0339655 39.2559214,58.0723721 39.7072319,59.0083044 C39.4267911,59.6573086 39.2919343,60.3776652 39.3501679,61.1336981 C39.535596,63.5095847 41.6703175,65.4277525 44.1904537,65.4846827 C44.7498028,65.4968278 45.2876975,65.422439 45.7918779,65.2736614 C46.3880062,67.4119593 47.9641449,69.1714817 50.0383341,70.1005823 L52.7492619,92.0915755 L48.4928447,92.0915755 C47.2055755,92.0915755 46.1527731,93.1345365 46.1527731,94.4097727 C46.1527731,95.685009 47.2055755,96.72797 48.4928447,96.72797 L49.7816465,96.72797 C48.4951434,96.72797 47.4423411,97.770931 47.4423411,99.0461673 C47.4423411,100.320644 48.4951434,101.364365 49.7816465,101.364365 L51.3677462,101.364365 C50.0804769,101.364365 49.0276745,102.407326 49.0276745,103.681803 C49.0276745,104.957039 50.0804769,106 51.3677462,106 L60.6314876,106 C61.9187569,106 62.9715593,104.957039 62.9715593,103.681803 C62.9715593,102.407326 61.9187569,101.364365 60.6314876,101.364365 L62.2175873,101.364365 C63.5040903,101.364365 64.5576589,100.320644 64.5576589,99.0461673 C64.5576589,97.770931 63.5040903,96.72797 62.2175873,96.72797 L63.506389,96.72797 C64.7936583,96.72797 65.8464607,95.685009 65.8464607,94.4097727 C65.8464607,93.1345365 64.7936583,92.0915755 63.506389,92.0915755 L59.2507381,92.0915755 L61.9608996,70.1005823 C64.0350889,69.1714817 65.6112275,67.4119593 66.2081221,65.2736614 C66.7115363,65.422439 67.2501972,65.4968278 67.8087801,65.4846827 C70.3289162,65.4277525 72.464404,63.5095847 72.6490659,61.1336981 C72.7080657,60.3776652 72.5724427,59.6573086 72.2920019,59.0083044 C72.7433124,58.0723721 73,57.0339655 73,55.9371106 C73,53.517198 71.7724968,51.3735867 69.878372,50.01713 Z" id="Fill-3" fill="#21436A"></path>
                            <polygon id="Fill-5" fill="#D4007B" points="0 58 23 58 23 54 0 54"></polygon>
                            <polygon id="Fill-7" fill="#D4007B" points="88 58 111 58 111 54 88 54"></polygon>
                            <polygon id="Fill-8" fill="#D4007B" points="14.4251675 75 13 71.6583469 24.5748325 67 26 70.3416531"></polygon>
                            <polygon id="Fill-9" fill="#D4007B" points="86.4459554 45 85 41.6266204 96.5540446 37 98 40.3741099"></polygon>
                            <polygon id="Fill-10" fill="#D4007B" points="70.4723998 27 67 25.266249 71.5268255 16 75 17.733751"></polygon>
                            <polygon id="Fill-11" fill="#D4007B" points="41.6305752 27 38 17.5117398 41.3701542 16 45 25.4882602"></polygon>
                            <polygon id="Fill-12" fill="#D4007B" points="96.5690131 75 85 70.3504397 86.4309869 67 98 71.6495603"></polygon>
                            <polygon id="Fill-13" fill="#D4007B" points="24.5609855 45 13 40.3629414 14.4390145 37 26 41.6370586"></polygon>
                            <polygon id="Fill-14" fill="#D4007B" points="14.4251675 75 13 71.6583469 24.5748325 67 26 70.3416531"></polygon>
                            <polygon id="Fill-15" fill="#D4007B" points="86.4459554 45 85 41.6266204 96.5540446 37 98 40.3741099"></polygon>
                            <polygon id="Fill-16" fill="#D4007B" points="70.4723998 27 67 25.266249 71.5268255 16 75 17.733751"></polygon>
                            <polygon id="Fill-17" fill="#D4007B" points="41.6305752 27 38 17.5117398 41.3701542 16 45 25.4882602"></polygon>
                            <polygon id="Fill-18" fill="#D4007B" points="96.5690131 75 85 70.3504397 86.4309869 67 98 71.6495603"></polygon>
                            <polygon id="Fill-19" fill="#D4007B" points="24.5609855 45 13 40.3629414 14.4390145 37 26 41.6370586"></polygon>
                            <polygon id="Fill-20" fill="#D4007B" points="31.2488845 34 19 21.7509728 21.7511155 19 34 31.2490272"></polygon>
                            <polygon id="Fill-21" fill="#D4007B" points="79.7509728 34 77 31.2490272 89.2490272 19 92 21.7509728"></polygon>
                            <polygon id="Fill-22" fill="#D4007B" points="54 23 58 23 58 0 54 0"></polygon>
                        </g>
                    </g>
                </g>
            </g>
        </g>
    </g>
</svg>