<?xml version="1.0" encoding="UTF-8"?>
<svg width="20px" height="20px" viewBox="0 0 20 20" version="1.1" xmlns="http://www.w3.org/2000/svg" xmlns:xlink="http://www.w3.org/1999/xlink">
    <!-- Generator: Sketch 52.4 (67378) - http://www.bohemiancoding.com/sketch -->
    <title>LinkedIn</title>
    <desc>Created with Sketch.</desc>
    <g id="Page-1" stroke="none" stroke-width="1" fill="none" fill-rule="evenodd">
        <g id="Landing-Page---Current-Openings-Modal" transform="translate(-745.000000, -6846.000000)" fill="#ffffff">
            <g id="Footer" transform="translate(0.000000, 6751.000000)">
                <g id="Social-Media" transform="translate(730.000000, 80.000000)">
                    <g id="LinkedIn" transform="translate(15.000000, 15.000000)">
                        <path d="M15.0450586,6.25 C19.0238175,6.25 19.7596154,8.87239996 19.7596154,12.2836579 L19.7596154,19.2307692 L15.8302043,19.2307692 L15.8302043,13.0717787 C15.8302043,11.6031757 15.802216,9.71360276 13.7870578,9.71360276 C11.7402286,9.71360276 11.4279381,11.3134363 11.4279381,12.9656146 L11.4279381,19.2307692 L7.5,19.2307692 L7.5,6.56554321 L11.2695832,6.56554321 L11.2695832,8.29587009 L11.3233502,8.29587009 C11.8477627,7.29984469 13.1315422,6.25 15.0450586,6.25 Z" id="Fill-1"></path>
                        <polygon id="Fill-6" points="1.25 19.2499924 4.85576923 19.2499924 4.85576923 6.25 1.25 6.25"></polygon>
                        <path d="M0.625,2.23197115 C0.625,3.46442308 1.62082995,4.46466346 2.85733082,4.46466346 C4.08806711,4.46466346 5.08749992,3.46442308 5.08749992,2.23197115 C5.08749992,1.00096154 4.08806711,0 2.85733082,0 C1.62082995,0 0.625,1.00096154 0.625,2.23197115 Z" id="Fill-3"></path>
                    </g>
                </g>
            </g>
        </g>
    </g>
</svg>