<?xml version="1.0" encoding="UTF-8"?>
<svg width="220px" height="220px" viewBox="0 0 220 220" version="1.1" xmlns="http://www.w3.org/2000/svg" xmlns:xlink="http://www.w3.org/1999/xlink">
    <!-- Generator: Sketch 52.4 (67378) - http://www.bohemiancoding.com/sketch -->
    <title>Group 5</title>
    <desc>Created with Sketch.</desc>
    <g id="Page-1" stroke="none" stroke-width="1" fill="none" fill-rule="evenodd">
        <g id="Landing-Page---Application-Confirmation" transform="translate(-1001.000000, -1804.000000)">
            <g id="Our-Philosophy" transform="translate(208.000000, 1693.000000)">
                <g id="Nurture-Curiosity" transform="translate(793.000000, 111.000000)">
                    <g id="Group-5">
                        <circle id="Oval-Copy-3" fill="#E5F9F7" cx="110" cy="110" r="110"></circle>
                        <g id="Icon---Curiosity" transform="translate(66.000000, 68.000000)">
                            <path d="M61.5254,19.1624 C60.4964,8.4104 51.4404,0.0004 40.4184,0.0004 C29.3954,0.0004 20.3394,8.4104 19.3114,19.1624 C8.4874,20.1224 0.0004,29.2074 0.0004,40.2814 C0.0004,51.9934 9.4954,61.4884 21.2074,61.4884 L59.6294,61.4884 C71.3414,61.4884 80.8374,51.9934 80.8374,40.2814 C80.8374,29.2074 72.3484,20.1224 61.5254,19.1624" id="Fill-1" fill="#21436A"></path>
                            <path d="M37.4619,69.3601 C28.2739,69.3601 20.7979,61.8841 20.7979,52.6961 C20.7979,43.5061 28.2739,36.0311 37.4619,36.0311 C46.6499,36.0311 54.1259,43.5061 54.1259,52.6961 C54.1259,61.8841 46.6499,69.3601 37.4619,69.3601 M37.4619,30.0311 C24.9649,30.0311 14.7979,40.1991 14.7979,52.6961 C14.7979,57.8651 16.5409,62.6321 19.4649,66.4501 L3.6519,82.2621 L7.8949,86.5051 L23.7069,70.6921 C27.5249,73.6171 32.2929,75.3601 37.4619,75.3601 C49.9589,75.3601 60.1259,65.1931 60.1259,52.6961 C60.1259,40.1991 49.9589,30.0311 37.4619,30.0311" id="Fill-3" fill="#16D1BC"></path>
                            <path d="M83.7374,75.6853 C83.3974,75.6853 83.0654,75.7203 82.7424,75.7783 C81.9764,71.2583 78.0524,67.8123 73.3144,67.8123 C68.0274,67.8123 63.7414,72.0983 63.7414,77.3853 C63.7414,82.6723 68.0274,86.9583 73.3144,86.9583 L83.7374,86.9583 C86.8504,86.9583 89.3744,84.4343 89.3744,81.3213 C89.3744,78.2083 86.8504,75.6853 83.7374,75.6853" id="Fill-5" fill="#21436A"></path>
                        </g>
                    </g>
                </g>
            </g>
        </g>
    </g>
</svg>