<?xml version="1.0" encoding="UTF-8"?>
<svg width="20px" height="20px" viewBox="0 0 20 20" version="1.1" xmlns="http://www.w3.org/2000/svg" xmlns:xlink="http://www.w3.org/1999/xlink">
    <!-- Generator: Sketch 52.4 (67378) - http://www.bohemiancoding.com/sketch -->
    <title>Instagram</title>
    <desc>Created with Sketch.</desc>
    <g id="Page-1" stroke="none" stroke-width="1" fill="none" fill-rule="evenodd">
        <g id="Landing-Page---Current-Openings-Modal" transform="translate(-843.000000, -6846.000000)" fill="#000000">
            <g id="Footer" transform="translate(0.000000, 6751.000000)">
                <g id="Social-Media" transform="translate(730.000000, 80.000000)">
                    <g id="Instagram" transform="translate(113.000000, 15.000000)">
                        <path d="M10,0 C7.284,0 6.94363636,0.0116363636 5.87709091,0.0603636364 C4.81272727,0.108727273 4.08581818,0.277818182 3.44945455,0.525090909 C2.792,0.780363636 2.23454545,1.12254545 1.67854545,1.67854545 C1.12254545,2.23454545 0.780363636,2.792 0.525090909,3.44945455 C0.277818182,4.08581818 0.108727273,4.81272727 0.0603636364,5.87709091 C0.0116363636,6.94363636 0,7.284 0,10 C0,12.716 0.0116363636,13.0563636 0.0603636364,14.1229091 C0.108727273,15.1876364 0.277818182,15.9145455 0.525090909,16.5505455 C0.780363636,17.208 1.12254545,17.7654545 1.67854545,18.3218182 C2.23454545,18.8774545 2.792,19.2196364 3.44945455,19.4752727 C4.08581818,19.7221818 4.81272727,19.8912727 5.87709091,19.94 C6.94363636,19.9887273 7.284,20 10,20 C12.716,20 13.0563636,19.9887273 14.1229091,19.94 C15.1876364,19.8912727 15.9145455,19.7221818 16.5505455,19.4752727 C17.208,19.2196364 17.7654545,18.8774545 18.3218182,18.3218182 C18.8774545,17.7654545 19.2196364,17.208 19.4752727,16.5505455 C19.7221818,15.9145455 19.8912727,15.1876364 19.94,14.1229091 C19.9887273,13.0563636 20,12.716 20,10 C20,7.284 19.9887273,6.94363636 19.94,5.87709091 C19.8912727,4.81272727 19.7221818,4.08581818 19.4752727,3.44945455 C19.2196364,2.792 18.8774545,2.23454545 18.3218182,1.67854545 C17.7654545,1.12254545 17.208,0.780363636 16.5505455,0.525090909 C15.9145455,0.277818182 15.1876364,0.108727273 14.1229091,0.0603636364 C13.0563636,0.0116363636 12.716,0 10,0 M10,1.80181818 C12.6701818,1.80181818 12.9865455,1.812 14.0407273,1.86 C15.016,1.90472727 15.5454545,2.06763636 15.8978182,2.20436364 C16.3643636,2.38581818 16.6974545,2.60254545 17.0476364,2.95236364 C17.3974545,3.30254545 17.6141818,3.63563636 17.7952727,4.10218182 C17.9323636,4.45454545 18.0956364,4.98436364 18.14,5.95927273 C18.188,7.01381818 18.1981818,7.32981818 18.1981818,10 C18.1981818,12.6701818 18.188,12.9865455 18.14,14.0407273 C18.0956364,15.016 17.9323636,15.5454545 17.7952727,15.8978182 C17.6141818,16.3643636 17.3974545,16.6974545 17.0476364,17.0476364 C16.6974545,17.3974545 16.3643636,17.6141818 15.8978182,17.7956364 C15.5454545,17.9323636 15.016,18.0956364 14.0407273,18.14 C12.9865455,18.188 12.6705455,18.1981818 10,18.1981818 C7.32981818,18.1981818 7.01345455,18.188 5.95927273,18.14 C4.98436364,18.0956364 4.45454545,17.9323636 4.10218182,17.7956364 C3.63563636,17.6141818 3.30254545,17.3974545 2.95236364,17.0476364 C2.60254545,16.6974545 2.38581818,16.3643636 2.20436364,15.8978182 C2.06763636,15.5454545 1.90472727,15.016 1.86,14.0407273 C1.812,12.9865455 1.80181818,12.6701818 1.80181818,10 C1.80181818,7.32981818 1.812,7.01381818 1.86,5.95927273 C1.90472727,4.98436364 2.06763636,4.45454545 2.20436364,4.10218182 C2.38581818,3.63563636 2.60254545,3.30254545 2.95236364,2.95236364 C3.30254545,2.60254545 3.63563636,2.38581818 4.10218182,2.20436364 C4.45454545,2.06763636 4.98436364,1.90472727 5.95927273,1.86 C7.01381818,1.812 7.32981818,1.80181818 10,1.80181818" id="Fill-1"></path>
                        <path d="M10,13.3334545 C8.15927273,13.3334545 6.66654545,11.8410909 6.66654545,10 C6.66654545,8.15927273 8.15927273,6.66690909 10,6.66690909 C11.8407273,6.66690909 13.3334545,8.15927273 13.3334545,10 C13.3334545,11.8410909 11.8407273,13.3334545 10,13.3334545 M10,4.86472727 C7.164,4.86472727 4.86472727,7.164 4.86472727,10 C4.86472727,12.836 7.164,15.1352727 10,15.1352727 C12.836,15.1352727 15.1352727,12.836 15.1352727,10 C15.1352727,7.164 12.836,4.86472727 10,4.86472727" id="Fill-3"></path>
                        <path d="M16.538,4.66192727 C16.538,5.32483636 16.0005455,5.86192727 15.338,5.86192727 C14.6754545,5.86192727 14.138,5.32483636 14.138,4.66192727 C14.138,3.99938182 14.6754545,3.46192727 15.338,3.46192727 C16.0005455,3.46192727 16.538,3.99938182 16.538,4.66192727" id="Fill-5"></path>
                    </g>
                </g>
            </g>
        </g>
    </g>
</svg>