<?xml version="1.0" encoding="UTF-8"?>
<svg width="25px" height="20px" viewBox="0 0 25 20" version="1.1" xmlns="http://www.w3.org/2000/svg" xmlns:xlink="http://www.w3.org/1999/xlink">
    <!-- Generator: Sketch 52.4 (67378) - http://www.bohemiancoding.com/sketch -->
    <title>Twitter</title>
    <desc>Created with Sketch.</desc>
    <g id="Page-1" stroke="none" stroke-width="1" fill="none" fill-rule="evenodd">
        <g id="Landing-Page---Current-Openings-Modal" transform="translate(-793.000000, -6847.000000)" fill="#ffffff">
            <g id="Footer" transform="translate(0.000000, 6751.000000)">
                <g id="Social-Media" transform="translate(730.000000, 80.000000)">
                    <g id="Twitter" transform="translate(63.000000, 16.000000)">
                        <path d="M22.2496384,5.63466517 C22.2496384,5.41603914 22.2451797,5.1984959 22.2350734,4.98193702 C23.2272754,4.26935987 24.0898788,3.3801888 24.7703704,2.36777604 C23.8597125,2.7695912 22.8797966,3.04048667 21.8518263,3.16264556 C22.9010001,2.53767632 23.7066316,1.54859286 24.08651,0.369725069 C23.1044143,0.948035713 22.0171932,1.36875055 20.8596243,1.59525145 C19.9322216,0.613845987 18.6115646,0 17.1500136,0 C14.3433325,0 12.0672327,2.26126844 12.0672327,5.04857809 C12.0672327,5.44488084 12.1119185,5.83006034 12.1991102,6.19978541 C7.97556385,5.98883737 4.23018477,3.97966315 1.72401778,0.924706415 C1.28716753,1.67065332 1.03569873,2.53767632 1.03569873,3.46238274 C1.03569873,5.21404877 1.93298062,6.7603776 3.29723354,7.6650031 C2.46366104,7.63950821 1.68042193,7.41192452 0.995471644,7.03343866 C0.994381748,7.05450393 0.994381748,7.07556921 0.994381748,7.09771727 C0.994381748,9.54325764 2.74643959,11.5846204 5.07158471,12.0475642 C4.64474169,12.162931 4.19560533,12.2251425 3.731904,12.2251425 C3.40453879,12.2251425 3.0860909,12.192954 2.77656036,12.1340893 C3.42346335,14.1400152 5.29947212,15.5997204 7.52414862,15.6408666 C5.78447597,16.9950487 3.59328901,17.8021242 1.21226193,17.8021242 C0.802163674,17.8021242 0.397713067,17.7787949 0,17.7321364 C2.24914963,19.1640827 4.91959372,20 7.79008332,20 C17.1377275,20 22.2496384,12.3061552 22.2496384,5.63466517 Z" id="Fill-1"></path>
                    </g>
                </g>
            </g>
        </g>
    </g>
</svg>