<?xml version="1.0" encoding="UTF-8"?>
<svg width="220px" height="220px" viewBox="0 0 220 220" version="1.1" xmlns="http://www.w3.org/2000/svg" xmlns:xlink="http://www.w3.org/1999/xlink">
    <!-- Generator: Sketch 52.4 (67378) - http://www.bohemiancoding.com/sketch -->
    <title>Group</title>
    <desc>Created with Sketch.</desc>
    <g id="Page-1" stroke="none" stroke-width="1" fill="none" fill-rule="evenodd">
        <g id="Landing-Page---Application-Confirmation" transform="translate(-217.000000, -1804.000000)">
            <g id="Our-Philosophy" transform="translate(208.000000, 1693.000000)">
                <g id="Partnership" transform="translate(9.000000, 111.000000)">
                    <g id="Group">
                        <circle id="Oval" fill="#E5F9F7" cx="110" cy="110" r="110"></circle>
                        <g id="Icon---Partnership" transform="translate(60.000000, 65.858900)">
                            <path d="M61.1213,72.197 C61.0953,72.171 61.0703,72.146 61.0443,72.095 C61.0703,72.12 61.0953,72.171 61.1213,72.197" id="Fill-1" fill="#000000"></path>
                            <path d="M61.1721,72.2478 L61.1211,72.1968 C61.1471,72.1968 61.1721,72.2228 61.1721,72.2478" id="Fill-3" fill="#000000"></path>
                            <path d="M72.0812,61.3386 C72.0562,61.3136 72.0562,61.3136 72.0302,61.2876 C72.0562,61.3136 72.0562,61.3136 72.0812,61.3386" id="Fill-5" fill="#000000"></path>
                            <path d="M77.3063,44.7712 L76.0573,43.5222 L59.8473,27.3122 L59.8213,27.3122 C59.3373,26.9552 55.5903,26.7762 52.4553,25.8842 C50.1353,25.2222 47.6123,25.9102 45.9043,27.6172 L42.0813,31.4402 C39.8383,33.6842 36.1423,33.6842 33.8993,31.4402 C31.6563,29.1982 31.6563,25.5022 33.8993,23.2592 L39.4813,17.6772 C39.6093,17.5492 39.7623,17.4482 39.8893,17.3202 C40.7283,16.7972 41.5383,16.3122 42.3263,15.8542 C40.1283,15.0752 38.0073,14.3972 36.2953,13.8792 C33.6703,13.0892 31.2743,11.6362 29.3373,9.6992 L19.7793,0.1412 L9.8893,10.0562 L0.0003,19.9452 L9.5833,29.5292 C11.5203,31.4662 12.9483,33.8622 13.7643,36.4872 C14.8553,40.0412 16.6033,45.3372 18.5313,49.4342 L19.0653,48.9002 C21.2833,46.6832 24.8763,46.6832 27.0943,48.9002 L27.2473,49.0532 C29.4643,51.2712 29.4643,54.8642 27.2473,57.0822 C29.4643,54.8642 33.0583,54.8642 35.2763,57.0822 L35.4293,57.2352 C37.6463,59.4522 37.6463,63.0462 35.4293,65.2642 C37.6463,63.0462 41.2403,63.0462 43.4573,65.2642 L43.6103,65.4172 C45.8283,67.6342 45.8283,71.2282 43.6103,73.4452 C45.8283,71.2282 49.4223,71.2282 51.6393,73.4452 L51.7923,73.5992 C54.0103,75.8162 54.0103,79.4102 51.7923,81.5512 L50.2633,83.0802 L50.2503,83.0932 L50.2633,83.1052 C50.2633,83.1312 50.2883,83.1312 50.2883,83.1572 L50.3143,83.1822 L54.4683,87.3362 C56.6863,89.5542 60.2803,89.5542 62.4973,87.3362 L62.6503,87.1842 C64.1623,85.6712 64.6413,83.5202 64.0913,81.6012 L44.0133,61.5222 C43.7143,61.2242 43.7143,60.7402 44.0133,60.4412 C44.3113,60.1422 44.7963,60.1422 45.0943,60.4412 L65.2983,80.6452 C67.1653,81.1072 69.2203,80.6142 70.6793,79.1552 L70.8323,79.0022 C72.3273,77.5072 72.8093,75.3892 72.2893,73.4862 L52.1693,53.3662 C51.8703,53.0672 51.8703,52.5832 52.1693,52.2852 C52.4683,51.9862 52.9523,51.9862 53.2503,52.2852 L73.4123,72.4472 C75.2973,72.9382 77.3843,72.4502 78.8613,70.9732 L79.0143,70.8202 C80.4803,69.3542 80.9713,67.2862 80.4973,65.4112 L60.3003,45.2352 C60.0013,44.9372 60.0013,44.4532 60.2993,44.1542 C60.5983,43.8552 61.0823,43.8552 61.3813,44.1532 L81.4883,64.2392 C83.4003,64.7762 85.5383,64.2962 87.0423,62.7922 L87.1963,62.6382 C89.3113,60.3962 89.3113,56.7762 87.1193,54.5592 L81.9703,49.4102 L81.9533,49.3932 C81.9503,49.3982 81.9483,49.4042 81.9453,49.4102 L77.3063,44.7712 Z" id="Fill-7" fill="#16D1BC"></path>
                            <path d="M51.7922,73.5989 L51.6392,73.4459 C49.4222,71.2279 45.8282,71.2279 43.6102,73.4459 C45.8282,71.2279 45.8282,67.6349 43.6102,65.4169 L43.4582,65.2639 C41.2402,63.0469 37.6462,63.0469 35.4292,65.2639 C37.6462,63.0469 37.6462,59.4529 35.4292,57.2349 L35.2762,57.0819 C33.0582,54.8649 29.4642,54.8649 27.2472,57.0819 C29.4642,54.8649 29.4642,51.2709 27.2472,49.0539 L27.0942,48.9009 C24.8762,46.6829 21.2832,46.6829 19.0652,48.9009 L18.5312,49.4339 L18.5042,49.4609 L17.4852,50.4809 C17.4592,50.5059 17.4342,50.5319 17.3832,50.5569 L17.3072,50.6339 L13.4322,54.5079 C11.2152,56.7249 11.2152,60.3189 13.4322,62.5369 L13.5852,62.6899 C15.8032,64.9069 19.3962,64.9069 21.6142,62.6899 C19.3962,64.9069 19.3962,68.5009 21.6142,70.7189 L21.7672,70.8709 C23.9082,73.0129 27.4002,73.0629 29.6172,71.0239 C27.5782,73.2419 27.6292,76.7339 29.7702,78.8749 L29.9232,79.0279 C32.1412,81.2449 35.7342,81.2449 37.9522,79.0279 C35.7342,81.2449 35.7342,84.8389 37.9522,87.0569 L38.1052,87.2089 C40.3222,89.4269 43.9172,89.4269 46.1342,87.2089 L50.1102,83.2329 L50.1872,83.1569 L50.2502,83.0929 L50.2632,83.0799 L51.7922,81.5509 C54.0102,79.4099 54.0102,75.8159 51.7922,73.5989" id="Fill-9" fill="#21436A"></path>
                            <path d="M90.4582,10.26 L80.5682,0.37 L72.5402,8.374 C65.9772,12.537 61.6232,4.657 42.3262,15.855 C41.5382,16.312 40.7282,16.797 39.8892,17.32 C39.7622,17.448 39.6092,17.55 39.4812,17.677 L33.8992,23.259 C31.6562,25.502 31.6562,29.198 33.8992,31.441 C36.1432,33.684 39.8382,33.684 42.0812,31.441 L45.9042,27.617 C47.6122,25.91 50.1352,25.222 52.4552,25.885 C55.5902,26.777 59.3372,26.955 59.8212,27.312 L59.8472,27.312 L76.0572,43.522 L77.3062,44.771 L81.9452,49.41 C81.9482,49.405 81.9502,49.398 81.9532,49.393 C83.8362,45.317 85.5412,40.178 86.6092,36.692 C87.3992,34.066 88.8532,31.67 90.7902,29.733 L100.3732,20.15 L90.4582,10.26 Z" id="Fill-11" fill="#21436A"></path>
                        </g>
                    </g>
                </g>
            </g>
        </g>
    </g>
</svg>