<?xml version="1.0" encoding="UTF-8"?>
<svg width="220px" height="220px" viewBox="0 0 220 220" version="1.1" xmlns="http://www.w3.org/2000/svg" xmlns:xlink="http://www.w3.org/1999/xlink">
    <!-- Generator: Sketch 52.4 (67378) - http://www.bohemiancoding.com/sketch -->
    <title>Group 2</title>
    <desc>Created with Sketch.</desc>
    <defs>
        <polygon id="path-1" points="0.574125033 0.709225033 15.375 0.709225033 15.375 15.510575 0.574125033 15.510575"></polygon>
        <polygon id="path-3" points="0 0.198893281 14.801275 0.198893281 14.801275 14.999875 0 14.999875"></polygon>
    </defs>
    <g id="Page-1" stroke="none" stroke-width="1" fill="none" fill-rule="evenodd">
        <g id="Landing-Page---Application-Confirmation" transform="translate(-480.000000, -1804.000000)">
            <g id="Our-Philosophy" transform="translate(208.000000, 1693.000000)">
                <g id="Inclusion" transform="translate(272.000000, 111.000000)">
                    <g id="Group-2">
                        <circle id="Oval-Copy" fill="#E5F9F7" cx="110" cy="110" r="110"></circle>
                        <g id="Icon---Inclusive" transform="translate(62.000000, 62.000000)">
                            <g id="Group-3" transform="translate(80.000000, 0.290600)">
                                <mask id="mask-2" fill="white">
                                    <use xlink:href="#path-1"></use>
                                </mask>
                                <g id="Clip-2"></g>
                                <path d="M2.8128,2.9479 C5.7418,0.0189 10.4278,-0.0441 13.2778,2.8069 C16.1288,5.6569 16.0658,10.3429 13.1368,13.2719 C10.2078,16.2009 5.5218,16.2639 2.6718,13.4129 C-0.1792,10.5619 -0.1162,5.8769 2.8128,2.9479" id="Fill-1" fill="#16D1BC" mask="url(#mask-2)"></path>
                            </g>
                            <path d="M89.053,20.1042 C88.953,20.0042 88.953,20.0042 88.853,19.9042 L87.453,18.5042 L87.353,18.4042 L82.653,13.7042 L77.953,9.0042 L77.853,8.9042 L76.453,7.5042 C76.353,7.4042 76.353,7.3042 76.253,7.3042 C76.153,7.3042 76.153,7.2042 76.053,7.1042 C74.753,6.0042 72.653,6.1042 71.453,7.4042 L61.153,17.7042 C59.853,19.0042 59.753,21.0042 60.853,22.3042 L56.453,26.7042 C53.953,29.2042 53.953,33.2042 56.353,35.6042 L60.853,40.1042 C63.253,42.5042 67.253,42.4042 69.753,40.0042 L74.153,35.6042 C75.453,36.7042 77.553,36.6042 78.753,35.3042 L89.053,25.0042 C90.353,23.6042 90.453,21.4042 89.053,20.1042" id="Fill-4" fill="#16D1BC"></path>
                            <g id="Group-8" transform="translate(0.000000, 81.290600)">
                                <mask id="mask-4" fill="white">
                                    <use xlink:href="#path-3"></use>
                                </mask>
                                <g id="Clip-7"></g>
                                <path d="M2.2386,2.4377 C5.1676,-0.4913 9.8526,-0.5543 12.7036,2.2957 C15.5546,5.1467 15.4916,9.8327 12.5626,12.7607 C9.6336,15.6907 4.9476,15.7527 2.0976,12.9027 C-0.7534,10.0517 -0.6904,5.3667 2.2386,2.4377" id="Fill-6" fill="#DD0683" mask="url(#mask-4)"></path>
                            </g>
                            <path d="M6.2015,77.2038 C6.3015,77.3048 6.3015,77.3048 6.4015,77.4038 L7.8015,78.8048 L7.9015,78.9038 L12.6015,83.6038 L17.3015,88.3048 L17.4015,88.4038 L18.8015,89.8048 C18.9015,89.9038 18.9015,90.0038 19.0015,90.0038 C19.1015,90.1038 19.1015,90.1038 19.2015,90.2038 C20.5015,91.3048 22.6015,91.2038 23.8015,89.9038 L34.1015,79.6038 C35.4015,78.3048 35.5015,76.3048 34.4015,75.0038 L38.8015,70.6038 C41.3015,68.1038 41.3015,64.1038 38.9015,61.7038 L34.4015,57.2038 C32.0015,54.8038 28.0015,54.9038 25.5015,57.3038 L21.1015,61.7038 C19.8015,60.6038 17.7015,60.7038 16.5015,62.0038 L6.2015,72.3038 C5.0015,73.7038 4.9015,75.9038 6.2015,77.2038" id="Fill-9" fill="#DD0683"></path>
                            <path d="M81.6976,82.5183 C84.6266,79.5893 89.3116,79.5263 92.1626,82.3763 C95.0136,85.2273 94.9496,89.9133 92.0216,92.8413 C89.0926,95.7713 84.4066,95.8333 81.5556,92.9833 C78.7056,90.1323 78.7686,85.4473 81.6976,82.5183" id="Fill-11" fill="#21436A"></path>
                            <path d="M75.1019,89.2038 C75.2019,89.1038 75.2019,89.1038 75.3019,89.0038 L76.7019,87.6038 L76.8019,87.5038 L81.6019,82.7038 L86.4019,77.9038 L86.5019,77.8048 L87.9019,76.4038 C88.0019,76.3048 88.1019,76.3048 88.1019,76.2038 C88.1019,76.1038 88.2019,76.1038 88.3019,76.0038 C89.4019,74.6038 89.4019,72.6038 88.2019,71.4038 L78.2019,61.4038 C77.0019,60.2038 74.9019,60.1038 73.6019,61.3038 L69.4019,57.1038 C67.0019,54.7038 63.0019,54.8038 60.5019,57.2038 L55.8019,61.9038 C53.3019,64.4038 53.3019,68.4038 55.7019,70.8038 L59.9019,75.0038 C58.8019,76.4038 58.8019,78.4038 60.0019,79.6038 L70.0019,89.6038 C71.6019,90.6038 73.8019,90.6038 75.1019,89.2038" id="Fill-13" fill="#21436A"></path>
                            <path d="M3.3323,4.2776 C6.2613,1.3486 10.9463,1.2856 13.7973,4.1366 C16.6483,6.9866 16.5843,11.6726 13.6563,14.6016 C10.7273,17.5306 6.0413,17.5936 3.1903,14.7426 C0.3403,11.8926 0.4033,7.2066 3.3323,4.2776" id="Fill-15" fill="#000000"></path>
                            <path d="M20.3016,7.904 C20.2016,8.004 20.2016,8.004 20.1016,8.104 L18.7016,9.504 L18.6016,9.604 L13.8016,14.404 L9.0016,19.204 L8.9016,19.304 L7.5016,20.704 C7.4016,20.804 7.3016,20.804 7.3016,20.904 C7.2016,21.004 7.2016,21.004 7.1016,21.104 C6.0016,22.504 6.0016,24.504 7.2016,25.704 L17.2016,35.704 C18.4016,36.904 20.5016,37.004 21.8016,35.804 L26.0016,40.004 C28.4016,42.404 32.4016,42.304 34.9016,39.904 L39.6016,35.204 C42.1016,32.704 42.1016,28.704 39.7016,26.304 L35.5016,22.104 C36.6016,20.704 36.6016,18.704 35.4016,17.504 L25.4016,7.504 C23.8016,6.604 21.6016,6.604 20.3016,7.904" id="Fill-17" fill="#000000"></path>
                            <path d="M21.7669,47.9197 C21.7669,62.0667 33.2359,73.5357 47.3829,73.5357 L47.3829,47.9197 L21.7669,47.9197 Z" id="Fill-19" fill="#000000"></path>
                            <path d="M47.3826,22.3039 C33.2356,22.3039 21.7666,33.7729 21.7666,47.9199 L47.3826,47.9199 L47.3826,22.3039 Z" id="Fill-21" fill="#16D1BC"></path>
                            <path d="M47.3826,73.5359 C61.5296,73.5359 72.9986,62.0669 72.9986,47.9199 L47.3826,47.9199 L47.3826,73.5359 Z" id="Fill-23" fill="#DD0683"></path>
                            <path d="M47.3826,22.3039 L47.3826,47.9199 L72.9986,47.9199 C72.9986,33.7729 61.5296,22.3039 47.3826,22.3039" id="Fill-25" fill="#21436A"></path>
                        </g>
                    </g>
                </g>
            </g>
        </g>
    </g>
</svg>